<?xml version="1.0" encoding="utf-8"?>
<!-- Svg Vector Icons : http://www.onlinewebfonts.com/icon -->
<!DOCTYPE svg PUBLIC "-//W3C//DTD SVG 1.1//EN" "http://www.w3.org/Graphics/SVG/1.1/DTD/svg11.dtd">
<svg version="1.1" xmlns="http://www.w3.org/2000/svg" xmlns:xlink="http://www.w3.org/1999/xlink" x="0px" y="0px" viewBox="0 0 256 256" enable-background="new 0 0 256 256" xml:space="preserve">
<metadata> Svg Vector Icons : http://www.onlinewebfonts.com/icon </metadata>
<g><g><g><g><path fill="#000000" d="M216.5,76.4c-5.2,1.8-12.1,8.9-15.2,12.2c0-14,0-24.2,0-24.2l-69.8-0.3v0l-3.5,0l-3.5,0v0l-69.8,0.3c0,0,0,10.2,0,24.2c-3.1-3.3-10.1-10.4-15.2-12.2c-6.8-2.4-29.5,0-29.5,0v9.2c0,0,22.3-0.8,27.1,2c4.8,2.8,10,26.3,14,26.3c0.9,0,2.2,0,3.6,0c0,25.4,0,51.8,0,56.1c0,8.6,8.2,21.7,23.9,21.7c3.2,0,7.3,0,11.8,0c0-12.5,0-24.5,0-26.1c2.6-7,5-19.2,1.3-24.4c-6.7-2-14.4-11.2-14.4-24c0-12.7,6.9-24.4,19.1-24.6c0,0,0,0,0,0c0,0,0.2,0,0.3,0c12.2,0.2,19.1,11.9,19.1,24.6c0,12.8-7.7,22-14.4,24c-3.7,5.2-1.3,17.4,1.3,24.4c0,1.6,0,13.7,0,26.1c8.1,0,16.2,0,21.7,0c2.9,0,5.1,0,6.2,0c0-12.3,0-24.3,0-25.9c0-3,7.5-15.5-3.5-27.9c-3.3-2.6-5.4-6.8-5.4-11.3c0-0.4,0.1-1.5,0.1-1.5l3.7-29.6h3l-1.1,35h3.9v-35h3.2v35h3.3v-35h2.9v34.8l4,0l-1-34.8h3.3l3.6,31.3c0,0,0,0.6,0,0.9c-0.2,3.8-1.9,7.1-4.5,9.6c0,0,0,0,0,0c-10.5,10.7-4.2,25.2-4.2,28.7c0,1.8,0,13.6,0,25.7c6.6,0,14.1,0,21,0c0-4.1,0-7.4,0-8.3c0.9-1.6,5.9-14.5-5.9-17.7c0-64,15.3-72.6,15.3-72.6h1.9c0,0,0.1,82.2,0.1,85.6c0,1.3,0,6.6,0,13c1.1,0,2.3,0,3.2,0c15.7,0,23.9-13.1,23.9-21.7c0-4.3,0-30.8,0-56.1c1.4,0,2.7,0,3.6,0c4,0,9.2-23.6,14-26.3c4.8-2.8,27.1-2,27.1-2v-9.2C246,76.4,223.3,74.1,216.5,76.4z"/><path fill="#000000" d="M85.3,107.6c0-0.9,0.1-1.4,0.1-1.4s-0.4,0.4-0.8,1.3s-1,2.1-1.4,3.6c-0.5,1.5-0.9,3.4-1.1,5.4c-0.2,2-0.3,4.2,0.1,6.5c0.2,1.2,0.6,2.2,1,3.2c0.4,1,0.9,2,1.4,2.8c1,1.8,2.1,3.3,3.1,4.5c1,1.2,2,2.2,2.8,2.8c0.7,0.6,1.3,0.7,1.3,0.7c0,0-0.4-0.3-0.8-1.1c-0.5-0.8-1-2-1.7-3.3c-0.6-1.4-1.4-3-2.1-4.8c-0.4-0.9-0.7-1.8-1-2.7c-0.3-0.9-0.6-1.9-0.7-2.7c-0.6-3.7-0.3-7.9-0.3-10.9C85.2,109.8,85.2,108.5,85.3,107.6z"/></g></g><g></g><g></g><g></g><g></g><g></g><g></g><g></g><g></g><g></g><g></g><g></g><g></g><g></g><g></g><g></g></g></g>
</svg>